<?xml version="1.0" standalone="no"?>
<!DOCTYPE svg PUBLIC "-//W3C//DTD SVG 20010904//EN"
 "http://www.w3.org/TR/2001/REC-SVG-20010904/DTD/svg10.dtd">
<svg version="1.0" xmlns="http://www.w3.org/2000/svg"
 width="500.000000pt" height="500.000000pt" viewBox="0 0 500.000000 500.000000"
 preserveAspectRatio="xMidYMid meet">

<g transform="translate(0.000000,500.000000) scale(0.100000,-0.100000)"
fill="#000000" stroke="none">
<path d="M2420 4374 c-288 -20 -529 -83 -762 -200 -265 -133 -547 -382 -707
-624 -221 -334 -322 -661 -321 -1045 1 -302 63 -572 191 -826 280 -558 749
-912 1360 -1025 117 -22 391 -29 519 -15 568 65 1058 367 1368 843 270 415
362 913 261 1413 -127 631 -597 1160 -1225 1378 -207 72 -492 114 -684 101z
m400 -333 c660 -152 1149 -677 1235 -1328 68 -509 -101 -986 -476 -1348 -344
-332 -798 -480 -1283 -420 -351 43 -639 187 -902 449 -147 147 -232 265 -313
436 -279 587 -167 1280 283 1748 258 268 542 418 903 477 126 21 437 13 553
-14z"/>
<path d="M2470 3363 c-28 -10 -600 -588 -616 -622 -29 -60 -4 -133 59 -171 73
-45 119 -24 274 124 68 64 127 116 133 116 6 0 9 -177 8 -507 -1 -555 0 -569
54 -622 81 -79 207 -58 265 44 l23 40 0 523 c0 287 4 522 8 522 5 0 62 -50
128 -111 65 -62 133 -120 149 -130 104 -65 237 54 190 168 -11 26 -107 128
-298 318 -155 154 -293 288 -307 297 -25 18 -43 21 -70 11z"/>
</g>
</svg>
