<?xml version="1.0" standalone="no"?>
<!DOCTYPE svg PUBLIC "-//W3C//DTD SVG 20010904//EN"
 "http://www.w3.org/TR/2001/REC-SVG-20010904/DTD/svg10.dtd">
<svg version="1.0" xmlns="http://www.w3.org/2000/svg"
 width="869.000000pt" height="480.000000pt" viewBox="0 0 869.000000 480.000000"
 preserveAspectRatio="xMidYMid meet">

<g transform="translate(0.000000,480.000000) scale(0.100000,-0.100000)"
fill="#000000" stroke="none">
<path d="M4705 2838 c-3 -7 -4 -204 -3 -438 l3 -425 103 -3 102 -3 0 131 0
130 73 -77 c39 -43 95 -102 122 -131 l50 -53 120 3 120 3 -164 167 -164 168
104 98 c57 54 127 119 154 145 l50 47 -118 0 -117 0 -115 -111 -115 -112 0
237 0 236 -100 0 c-71 0 -102 -4 -105 -12z"/>
<path d="M5818 2803 c-8 -10 -88 -127 -177 -261 l-162 -243 3 -87 3 -87 188
-3 187 -2 0 -75 0 -75 105 0 105 0 0 75 0 75 60 0 60 0 0 80 0 80 -60 0 -60 0
-2 268 -3 267 -116 3 c-100 2 -117 0 -131 -15z m42 -348 l0 -175 -121 0 -120
0 118 175 c65 96 119 175 121 175 1 0 2 -79 2 -175z"/>
<path d="M2480 2690 l0 -90 -50 0 -50 0 0 -70 0 -70 49 0 49 0 4 -187 c4 -218
11 -242 88 -280 39 -20 59 -23 172 -23 l128 0 0 69 0 69 -81 4 c-110 5 -109 3
-109 195 l0 153 105 0 105 0 0 70 0 70 -105 0 -105 0 0 90 0 90 -100 0 -100 0
0 -90z"/>
<path d="M1844 2607 c-119 -31 -169 -94 -161 -204 8 -113 67 -157 252 -188 55
-9 105 -21 112 -27 23 -18 16 -66 -12 -84 -37 -24 -209 -15 -285 15 -30 11
-56 21 -57 21 -2 0 -3 -34 -3 -75 l0 -74 38 -10 c122 -33 294 -38 383 -11 95
28 142 88 142 184 0 133 -60 178 -278 210 -46 7 -91 18 -99 26 -23 18 -20 56
6 74 36 25 161 21 253 -8 l76 -24 -3 76 -3 77 -55 12 c-87 20 -247 25 -306 10z"/>
<path d="M4190 2610 c-113 -24 -194 -80 -237 -163 -38 -75 -44 -207 -13 -291
40 -106 124 -172 248 -197 72 -14 187 -7 247 14 l40 14 3 80 3 81 -43 -21
c-29 -15 -67 -23 -118 -25 -65 -3 -79 -1 -109 20 -55 37 -74 71 -79 139 -3 36
1 77 8 101 17 48 68 95 115 104 56 10 138 0 184 -24 l42 -22 -3 81 -3 82 -39
14 c-52 17 -189 25 -246 13z"/>
<path d="M3298 2590 c-67 -12 -148 -51 -198 -96 -133 -120 -116 -320 37 -425
84 -58 199 -85 300 -69 57 9 70 8 156 -20 52 -16 97 -30 100 -30 3 0 -5 28
-19 62 -13 34 -24 66 -24 71 0 5 15 27 34 50 41 52 56 95 56 161 0 79 -16 120
-70 179 -86 95 -235 141 -372 117z m219 -52 c193 -71 255 -274 122 -406 l-33
-33 17 -46 c10 -26 16 -48 14 -50 -2 -1 -35 7 -73 20 -45 15 -78 21 -94 16
-14 -4 -55 -7 -91 -8 -277 -4 -438 254 -266 429 98 100 260 131 404 78z"/>
<path d="M3226 2384 c-11 -11 -16 -35 -16 -83 0 -98 5 -101 163 -101 156 0
167 7 167 98 0 98 -7 102 -165 102 -108 0 -137 -3 -149 -16z m272 -13 c9 -5
12 -27 10 -72 l-3 -64 -132 -3 -133 -3 0 70 c0 46 4 71 13 74 21 9 231 7 245
-2z"/>
<path d="M3307 2334 c-4 -4 -7 -23 -7 -41 0 -42 23 -41 28 1 4 29 -9 52 -21
40z"/>
<path d="M3430 2300 c0 -22 5 -40 10 -40 6 0 10 18 10 40 0 22 -4 40 -10 40
-5 0 -10 -18 -10 -40z"/>
<path d="M3166 2333 c-13 -13 -6 -63 9 -63 10 0 15 10 15 29 0 30 -12 46 -24
34z"/>
<path d="M3570 2300 c0 -16 5 -30 10 -30 6 0 10 14 10 30 0 17 -4 30 -10 30
-5 0 -10 -13 -10 -30z"/>
<path d="M6380 2383 c0 -120 5 -238 11 -263 25 -109 97 -164 214 -164 78 -1
125 17 171 64 16 16 32 30 37 30 4 0 7 -18 7 -40 l0 -40 100 0 100 0 0 315 0
315 -100 0 -100 0 0 -171 c0 -93 -5 -190 -11 -214 -27 -107 -146 -148 -203
-71 -20 26 -21 40 -20 242 l2 214 -104 0 -104 0 0 -217z"/>
</g>
</svg>
