<?xml version="1.0" standalone="no"?>
<!DOCTYPE svg PUBLIC "-//W3C//DTD SVG 20010904//EN"
 "http://www.w3.org/TR/2001/REC-SVG-20010904/DTD/svg10.dtd">
<svg version="1.0" xmlns="http://www.w3.org/2000/svg"
 width="869.000000pt" height="480.000000pt" viewBox="0 0 869.000000 480.000000"
 preserveAspectRatio="xMidYMid meet">

<g transform="translate(0.000000,480.000000) scale(0.100000,-0.100000)"
fill="#000000" stroke="none">
<path d="M170 4780 c-37 -12 -68 -33 -97 -63 -79 -84 -73 113 -73 -2322 0
-2416 -5 -2236 68 -2317 20 -23 55 -49 77 -59 38 -18 197 -19 4203 -19 3738 0
4166 2 4200 16 49 20 100 70 123 119 18 39 19 118 19 2260 0 2126 -1 2222 -19
2260 -25 56 -90 111 -152 129 -47 14 -473 16 -4173 16 -4016 -1 -4122 -1
-4176 -20z m4740 -2167 l0 -236 114 111 114 112 119 0 118 0 -60 -58 c-33 -31
-102 -97 -154 -145 l-94 -89 149 -151 c83 -84 158 -162 168 -174 l19 -23 -120
0 -121 0 -126 134 -125 135 -3 -132 -3 -132 -100 0 -100 0 -3 443 -2 442 105
0 105 0 0 -237z m1158 -65 l2 -268 60 0 60 0 0 -80 0 -80 -60 0 -59 0 -3 -77
-3 -78 -102 -3 -103 -3 0 81 0 80 -190 0 -190 0 0 90 0 90 161 243 c89 133
169 250 177 260 14 15 31 17 131 15 l116 -3 3 -267z m-3388 142 l0 -90 105 0
105 0 0 -70 0 -70 -106 0 -105 0 3 -160 c2 -113 7 -163 16 -172 8 -8 45 -14
92 -17 l80 -3 0 -76 0 -75 -122 6 c-148 8 -189 18 -222 58 -38 45 -46 89 -46
272 l0 167 -50 0 -50 0 0 70 0 70 50 0 50 0 0 90 0 90 100 0 100 0 0 -90z
m-530 -93 l55 -12 3 -79 c3 -72 1 -78 -15 -71 -97 41 -252 58 -303 32 -30 -15
-38 -58 -15 -77 8 -7 55 -19 103 -26 216 -33 275 -77 275 -209 0 -94 -29 -137
-116 -175 -85 -38 -267 -37 -409 1 l-38 10 0 75 c0 69 2 75 18 68 95 -41 287
-58 330 -28 29 20 30 69 1 85 -12 6 -51 15 -88 20 -103 15 -176 38 -215 70
-59 49 -74 150 -33 229 40 80 132 113 292 104 55 -2 125 -10 155 -17z m2287 0
l38 -12 3 -83 3 -83 -43 23 c-34 18 -59 23 -125 23 -96 0 -124 -15 -161 -86
-20 -37 -23 -55 -19 -112 5 -76 21 -107 78 -145 30 -21 44 -23 109 -20 51 2
89 10 118 24 l42 21 0 -82 0 -83 -65 -16 c-221 -55 -432 33 -481 202 -24 83
-16 211 19 279 44 85 130 143 244 163 59 11 190 4 240 -13z m-884 -40 c48 -21
83 -46 117 -84 53 -58 70 -100 70 -178 0 -72 -15 -116 -56 -163 -39 -46 -39
-46 -5 -129 11 -29 17 -53 12 -53 -5 0 -50 13 -100 30 -83 27 -95 28 -153 19
-169 -27 -365 71 -411 206 -49 141 13 274 162 350 106 53 250 54 364 2z m3035
-164 c-1 -137 3 -218 10 -236 23 -55 111 -68 160 -23 52 46 56 68 60 274 l4
192 99 0 99 0 0 -320 0 -320 -100 0 -100 0 0 45 0 45 -46 -35 c-69 -53 -110
-67 -179 -63 -112 7 -182 66 -204 169 -6 27 -11 147 -11 264 l0 215 105 0 105
0 -2 -207z"/>
<path d="M5737 2455 l-117 -175 120 0 120 0 0 175 c0 96 -1 175 -2 175 -2 -1
-56 -79 -121 -175z"/>
<path d="M3241 2540 c-60 -22 -69 -27 -128 -84 -140 -132 -62 -348 146 -410
55 -16 165 -20 211 -7 16 4 51 -1 95 -15 39 -12 71 -21 72 -20 1 1 -6 23 -15
49 l-17 46 37 38 c73 75 88 169 42 261 -30 60 -83 106 -162 138 -75 31 -201
32 -281 4z m283 -162 c24 -34 21 -133 -4 -158 -18 -18 -33 -20 -149 -20 -157
0 -161 2 -161 96 0 106 -2 104 160 104 132 0 140 -1 154 -22z m-334 -78 c0
-20 -5 -30 -15 -30 -10 0 -15 10 -15 30 0 20 5 30 15 30 10 0 15 -10 15 -30z
m400 0 c0 -16 -4 -30 -10 -30 -5 0 -10 14 -10 30 0 17 5 30 10 30 6 0 10 -13
10 -30z"/>
<path d="M3253 2373 c-9 -3 -13 -28 -13 -74 l0 -70 133 3 132 3 3 64 c2 45 -1
67 -10 72 -14 9 -224 11 -245 2z m75 -76 c2 -28 -1 -37 -12 -37 -12 0 -16 11
-16 41 0 52 24 48 28 -4z m122 3 c0 -22 -4 -40 -10 -40 -5 0 -10 18 -10 40 0
22 5 40 10 40 6 0 10 -18 10 -40z"/>
</g>
</svg>
