<?xml version="1.0" standalone="no"?>
<!DOCTYPE svg PUBLIC "-//W3C//DTD SVG 20010904//EN"
 "http://www.w3.org/TR/2001/REC-SVG-20010904/DTD/svg10.dtd">
<svg version="1.0" xmlns="http://www.w3.org/2000/svg"
 width="3000.000000pt" height="1909.000000pt" viewBox="0 0 3000.000000 1909.000000"
 preserveAspectRatio="xMidYMid meet">

<g transform="translate(0.000000,1909.000000) scale(0.100000,-0.100000)"
fill="#000000" stroke="none">
<path d="M0 9545 l0 -9545 15000 0 15000 0 0 9545 0 9545 -15000 0 -15000 0 0
-9545z m15094 5100 c201 -153 397 -312 408 -330 10 -17 58 -306 58 -350 0 -44
6 -38 -257 -277 -95 -87 -184 -160 -198 -164 -14 -3 -35 -4 -47 0 -30 7 -445
332 -459 358 -6 11 -20 80 -30 152 -11 72 -22 139 -25 148 -3 9 -2 33 1 52 6
29 41 67 211 227 112 106 214 199 226 206 37 20 64 15 112 -22z m1456 -990 c0
-8 -29 -157 -65 -331 -36 -175 -65 -319 -65 -321 0 -1 -8 -3 -17 -3 -10 0 -49
32 -88 70 -38 39 -73 70 -77 70 -4 0 -74 -73 -155 -162 -81 -90 -188 -206
-238 -258 -49 -52 -252 -271 -450 -485 -198 -215 -411 -445 -473 -513 -62 -67
-117 -134 -121 -150 -4 -15 -4 -459 2 -987 l10 -960 33 -45 c18 -25 42 -54 55
-65 28 -26 279 -403 279 -420 0 -32 -22 -52 -179 -161 -91 -64 -170 -120 -175
-125 -10 -8 -9 -762 0 -1663 l7 -598 1261 6 c1030 6 1265 5 1284 -6 69 -39
417 -266 438 -285 19 -18 24 -32 24 -73 l0 -50 -47 -1 c-27 -1 -73 -4 -103 -9
-48 -6 -42 -7 53 -9 89 -1 107 2 107 14 0 16 9 19 34 9 19 -7 21 -24 4 -24 -6
0 -22 -10 -36 -22 l-24 -23 -616 -3 c-339 -1 -637 -4 -662 -6 -25 -2 326 -3
780 -3 949 0 967 0 955 -11 -6 -4 -42 -18 -81 -30 -73 -23 -105 -44 -84 -57 5
-3 10 -11 10 -16 0 -6 -5 -7 -10 -4 -6 4 -16 2 -23 -3 -7 -5 -28 -14 -47 -20
-50 -15 -1667 -24 -3805 -21 -4036 5 -5099 1 -5040 -21 11 -4 112 -8 225 -9
331 -1 730 -13 730 -22 0 -4 -19 -10 -42 -13 -81 -11 -600 -26 -886 -26 -158
0 -406 -4 -552 -10 -628 -22 -2081 -47 -3920 -66 -300 -3 -707 -9 -905 -14
-198 -4 -380 -5 -405 0 -85 14 -165 40 -177 57 -26 35 -11 52 60 67 27 6 38
26 15 26 -7 0 -26 7 -41 15 -15 8 -55 22 -88 31 -33 9 -62 20 -64 24 -7 11
171 20 480 22 l290 2 -257 6 c-251 5 -257 5 -283 28 l-27 24 23 12 c20 9 25
20 27 63 2 28 8 55 15 60 7 5 116 49 242 98 127 49 298 115 380 148 l150 61
295 7 c162 4 572 7 910 8 l615 1 84 73 85 74 -5 909 c-6 1409 -5 1782 6 1792
6 6 68 12 138 14 71 3 122 1 115 -3 -7 -5 -45 -9 -84 -9 -66 0 -72 -2 -78 -22
-6 -26 12 -2569 19 -2576 5 -6 269 229 305 271 14 16 45 43 70 60 25 17 65 52
90 77 25 26 90 84 145 130 55 46 198 169 319 274 l219 191 -7 780 c-4 429 -9
790 -13 802 l-5 23 -472 3 -471 2 508 3 507 2 10 -24 c5 -14 13 -360 17 -771
l8 -746 140 123 c76 68 202 178 280 246 l140 123 0 238 c0 258 1 264 55 275
16 3 142 6 280 6 l249 1 44 37 c24 20 110 96 192 167 81 72 153 133 161 138 9
5 118 -98 365 -348 341 -344 353 -355 371 -337 17 17 18 45 16 495 l-3 476
-64 -44 c-101 -71 -98 -72 -263 125 -156 188 -147 170 -149 280 -1 53 2 103 7
112 10 18 134 116 204 163 25 16 63 43 85 61 64 50 100 65 128 55 14 -6 29
-16 34 -23 4 -7 10 121 13 294 3 185 9 311 15 316 6 6 261 13 616 17 l605 7
19 -28 c18 -27 19 -59 22 -544 2 -283 5 -523 6 -532 2 -17 25 4 427 382 184
173 226 210 237 210 5 0 27 -18 48 -41 l40 -41 507 4 c278 1 510 0 514 -4 4
-5 9 -66 12 -138 4 -115 7 -130 22 -130 10 0 51 39 92 88 42 48 178 197 303
332 l227 245 -7 305 c-7 312 1 565 16 537 11 -18 9 21 15 -430 3 -203 9 -367
12 -365 9 4 209 218 371 397 62 69 159 175 215 236 55 60 126 136 156 170 30
33 95 103 145 155 50 52 136 145 193 207 l102 112 0 55 c0 30 -4 66 -10 80
l-10 26 -583 0 -584 0 -5 -275 c-2 -151 -7 -278 -11 -282 -18 -17 -22 27 -25
262 -4 247 -3 255 18 294 13 21 31 42 41 44 10 3 283 6 607 6 476 2 591 -1
600 -11 6 -7 12 -39 14 -71 1 -31 5 -57 8 -57 3 0 46 44 95 98 169 185 389
424 525 568 52 56 108 116 124 135 79 90 121 137 271 299 90 96 175 190 190
208 l28 33 -79 80 c-59 59 -75 82 -67 90 7 7 114 33 240 60 125 26 266 56 313
67 108 25 110 25 110 7z m-7276 -986 c105 -39 199 -77 208 -86 10 -9 18 -30
18 -49 0 -42 -58 -398 -70 -429 -10 -26 -247 -157 -284 -157 -19 0 -332 112
-402 144 -47 22 -48 40 -14 264 17 115 35 219 40 230 11 27 244 152 284 153
16 1 115 -31 220 -70z m2263 -153 c98 -21 123 -31 209 -82 107 -65 89 -41 189
-259 l28 -60 -17 -135 c-10 -75 -24 -145 -32 -158 -9 -13 -47 -57 -86 -98 -61
-64 -86 -82 -183 -129 -61 -30 -122 -55 -135 -55 -13 0 -53 7 -89 15 -36 8
-88 20 -116 26 -28 6 -94 37 -150 70 l-100 60 -54 126 -55 126 18 141 18 141
75 85 c69 78 86 90 202 152 78 42 133 65 146 62 11 -2 70 -15 132 -28z m-5715
-1763 c113 -137 274 -337 291 -364 16 -24 16 -39 -9 -260 -15 -129 -30 -244
-35 -255 -8 -24 -25 -31 -403 -170 -163 -61 -213 -75 -231 -68 -23 9 -325 380
-325 399 1 10 21 -11 77 -81 17 -21 69 -86 115 -142 45 -57 91 -116 100 -130
32 -48 43 -47 248 33 19 7 112 41 205 75 204 73 199 71 203 103 3 26 -41 88
-166 236 -20 24 -53 67 -72 95 -19 29 -46 63 -59 77 -22 23 -23 28 -17 124 4
55 14 157 22 227 19 146 14 163 -40 155 -39 -5 -543 -184 -572 -202 -19 -12
-22 -27 -29 -112 -7 -107 -12 -159 -20 -213 -3 -19 -7 -52 -10 -72 -8 -71 -17
-108 -27 -108 -5 0 -7 18 -4 43 3 23 13 114 21 202 22 228 23 233 34 252 10
19 577 232 617 233 14 0 42 -25 86 -77z m1988 0 c98 -26 100 -27 162 -92 89
-94 87 -90 103 -183 14 -80 14 -89 -8 -188 l-22 -104 -57 -46 c-75 -61 -199
-122 -258 -128 -34 -3 -69 3 -126 23 -108 37 -113 40 -181 120 -57 66 -61 75
-75 153 -15 80 -15 86 9 185 26 110 21 103 132 190 44 34 173 92 214 96 5 1
53 -11 107 -26z m8229 -496 c53 -16 106 -73 122 -129 5 -22 8 -42 6 -44 -9
-10 -87 100 -87 122 0 18 -5 24 -22 24 -22 -1 -23 -1 -4 -15 26 -20 0 -20 -34
0 -14 8 -46 14 -72 15 -55 0 -70 14 -31 28 39 14 71 14 122 -1z m-183 -52
c-14 -13 -26 -28 -26 -32 -1 -16 -50 -64 -60 -58 -19 12 23 74 64 95 52 26 55
25 22 -5z m299 -237 c-6 -31 -65 -98 -86 -98 -14 0 -11 7 14 33 12 14 33 41
47 60 14 20 26 37 28 37 2 0 1 -15 -3 -32z m-336 -15 c40 -35 52 -65 31 -78
-14 -9 -90 75 -90 97 0 27 14 22 59 -19z m137 -90 c38 -5 44 -8 29 -15 -14 -5
-7 -7 20 -3 l40 5 -37 -15 c-33 -12 -44 -12 -88 1 -27 8 -50 19 -50 24 0 12
20 12 86 3z m787 -1674 c40 -12 77 -27 84 -33 17 -17 94 -267 88 -287 -3 -9
-60 -44 -131 -78 l-126 -62 -56 16 c-101 28 -110 34 -126 79 -46 129 -74 228
-69 245 4 14 43 39 127 80 66 33 125 60 129 61 5 0 41 -10 80 -21z m-11425
-244 c39 -12 60 -27 91 -62 47 -55 57 -105 40 -193 -10 -53 -17 -65 -58 -99
-25 -21 -69 -46 -96 -55 -47 -15 -55 -15 -105 0 -79 23 -136 80 -151 152 -6
29 -8 66 -4 80 23 97 26 103 45 97 10 -3 21 -1 25 4 3 7 0 8 -9 5 -26 -10 -18
3 19 32 37 28 97 53 131 54 11 0 43 -7 72 -15z m-1255 -177 c129 -136 123
-121 92 -221 -14 -46 -33 -91 -43 -99 -33 -29 -211 -138 -226 -138 -18 0 -198
183 -209 213 -6 15 0 49 16 102 21 69 29 84 63 109 74 54 189 125 204 125 8 1
55 -41 103 -91z m13983 -1474 c24 -14 44 -29 44 -34 0 -16 -64 -2 -81 19 -9
11 -25 21 -36 22 -10 0 -27 4 -38 9 -15 7 -10 9 23 9 30 1 58 -7 88 -25z
m-1686 -525 c-8 -10 -1480 -19 -1480 -9 0 5 6 11 13 13 18 8 1473 3 1467 -4z"/>
<path d="M14961 14615 c-23 -25 -41 -42 -41 -40 0 3 -15 -9 -32 -26 -18 -17
-32 -35 -31 -39 1 -4 -11 -21 -26 -38 -38 -40 -65 -81 -58 -89 4 -3 14 0 23 8
14 12 19 10 40 -14 13 -16 24 -36 24 -46 0 -9 5 -22 12 -29 9 -9 9 -12 -3 -12
-10 -1 -8 -5 6 -16 19 -14 19 -15 -10 -39 -17 -14 -38 -23 -47 -21 -11 3 -15
-1 -11 -13 3 -12 2 -12 -7 2 -6 10 -9 26 -5 35 4 9 9 34 11 55 4 33 3 38 -13
35 -10 -2 -17 -11 -17 -21 1 -9 -2 -17 -7 -17 -5 0 -9 -11 -9 -24 0 -29 -26
-54 -41 -39 -6 6 -11 31 -11 57 0 25 -4 46 -9 46 -13 0 -31 -49 -23 -62 4 -6
-1 -6 -14 1 -16 9 -25 7 -44 -10 l-23 -20 33 5 c41 7 43 -12 2 -20 -35 -7 -38
-23 -10 -49 11 -10 20 -24 20 -32 0 -7 3 -13 8 -13 4 0 28 -20 54 -45 26 -24
104 -87 172 -140 135 -104 140 -112 151 -215 10 -95 14 -122 26 -157 9 -28 15
-34 36 -31 14 2 33 14 42 28 9 13 11 21 4 17 -8 -5 -13 10 -18 50 -4 32 -13
91 -20 132 -10 54 -10 78 -2 90 10 15 96 97 235 223 58 54 62 59 45 72 -59 49
-156 125 -191 151 -47 34 -52 42 -62 105 -34 199 -41 224 -68 236 -38 16 -51
12 -91 -31z m-1 -301 c0 -8 -4 -13 -9 -10 -5 4 -11 1 -13 -6 -3 -7 -11 -9 -24
-4 -17 8 -16 10 11 22 17 7 31 13 33 14 1 0 2 -7 2 -16z"/>
<path d="M14671 11443 c-58 -68 -74 -85 -107 -113 -16 -14 -103 -106 -194
-205 -91 -98 -215 -233 -276 -300 -61 -66 -207 -224 -325 -351 l-214 -231 3
-57 c4 -51 2 -56 -17 -56 -18 0 -21 6 -21 38 l0 37 -52 -60 c-29 -33 -66 -73
-83 -90 -28 -28 -76 -80 -388 -417 l-109 -118 6 -1142 c4 -629 9 -1301 12
-1495 l6 -352 312 6 c171 3 312 6 313 7 0 0 -3 749 -8 1664 -8 1422 -7 1667 5
1690 l14 27 6 -35 c6 -39 27 -2497 25 -3019 l-1 -334 591 5 c325 3 593 7 595
9 2 2 1 498 -2 1102 l-5 1099 -36 22 c-54 35 -158 163 -270 333 -131 199 -135
208 -122 242 8 17 76 71 201 159 104 73 196 135 205 138 15 6 16 83 13 925 -3
1032 3 963 -77 872z"/>
<path d="M9924 10772 c-54 -3 -63 -6 -68 -25 -3 -12 -6 -157 -6 -323 l0 -300
71 -93 c39 -51 77 -95 84 -98 8 -2 25 -22 39 -44 24 -35 26 -48 26 -140 l0
-101 -33 -31 c-18 -18 -65 -54 -104 -82 l-72 -50 -1 -473 c0 -266 4 -472 9
-470 5 2 224 206 487 453 263 248 531 500 596 560 l118 110 -1 505 c-1 278 -4
529 -7 558 l-5 53 -536 -3 c-295 -2 -564 -4 -597 -6z"/>
<path d="M12336 10200 l-470 -5 107 -99 c58 -55 117 -106 130 -115 14 -9 40
-34 58 -56 19 -22 109 -116 202 -210 l168 -170 71 75 c232 244 266 294 248
359 -5 20 -7 64 -4 98 7 61 -8 119 -31 125 -5 2 -221 1 -479 -2z"/>
<path d="M9680 9995 c-25 -19 -62 -43 -82 -54 -21 -11 -61 -40 -90 -63 -30
-24 -64 -50 -76 -58 l-23 -15 116 -138 c84 -100 122 -137 138 -137 12 0 50 19
84 43 l62 42 3 175 3 175 -30 32 c-16 18 -37 33 -45 32 -8 0 -35 -16 -60 -34z"/>
<path d="M9858 9883 c-2 -4 -2 -57 1 -116 l6 -108 63 46 c34 25 62 48 62 51 0
8 -110 128 -121 132 -4 2 -9 -1 -11 -5z"/>
<path d="M11692 9827 l-52 -53 -2 -504 -1 -505 -8 405 c-5 223 -10 446 -11
497 l-3 92 -95 -92 c-53 -51 -129 -123 -170 -162 -42 -38 -115 -108 -164 -154
l-89 -85 2 -262 c2 -178 -1 -264 -8 -269 -7 -4 -11 8 -12 32 -1 21 -4 135 -8
254 l-6 217 -166 -157 c-91 -86 -232 -219 -314 -296 -83 -77 -190 -179 -240
-226 -49 -47 -130 -123 -180 -170 -49 -46 -131 -124 -183 -174 -51 -49 -98
-93 -104 -96 -7 -4 -8 -268 -5 -804 3 -438 7 -798 9 -799 2 -1 274 0 606 2
l602 4 -6 952 c-4 634 -3 948 3 941 10 -10 23 -937 23 -1618 l0 -278 266 1
266 1 -6 967 c-5 666 -4 962 3 951 7 -11 11 -283 12 -805 1 -434 4 -860 6
-946 l5 -158 604 0 604 0 0 224 c0 142 -4 227 -10 231 -7 4 -8 71 -4 193 8
260 9 570 6 1502 l-3 805 -107 -115 c-59 -63 -135 -144 -169 -180 l-62 -65
-378 378 c-208 207 -383 377 -388 377 -6 0 -34 -24 -63 -53z"/>
<path d="M14843 9459 l-33 -21 0 -178 c0 -99 3 -181 8 -183 4 -3 50 26 102 63
52 37 103 68 112 67 9 -1 16 -4 15 -7 -1 -3 4 -15 11 -27 16 -28 40 -30 38 -3
0 11 -5 20 -10 20 -4 -1 -19 21 -33 47 -40 77 -154 243 -167 243 -6 0 -26 -10
-43 -21z"/>
<path d="M14660 9329 c-47 -33 -106 -75 -133 -92 -68 -46 -69 -64 -12 -150 27
-40 59 -89 73 -109 14 -21 28 -38 32 -38 4 0 35 19 68 41 l62 42 0 183 c0 101
-1 184 -2 184 -2 -1 -41 -28 -88 -61z"/>
<path d="M15124 9105 c10 -7 15 -18 11 -24 -3 -7 0 -8 9 -5 9 3 16 8 16 11 0
10 -29 33 -42 33 -8 -1 -7 -6 6 -15z"/>
<path d="M8166 8792 c-2 -4 -4 -101 -3 -214 l2 -207 23 21 c12 12 22 25 22 30
0 10 44 50 134 122 34 27 94 78 135 115 40 36 85 75 99 86 75 60 91 54 -170
55 -130 0 -239 -4 -242 -8z"/>
<path d="M9024 8717 c-11 -12 -63 -58 -114 -102 -51 -44 -102 -89 -114 -101
-12 -11 -46 -38 -76 -60 -30 -21 -64 -47 -75 -57 -11 -10 -125 -109 -253 -220
l-233 -202 7 -735 c4 -404 8 -736 9 -738 1 -1 268 1 594 5 l591 6 -6 86 c-3
47 -7 487 -8 978 l-2 892 -139 135 c-77 75 -144 136 -150 136 -5 0 -19 -10
-31 -23z"/>
<path d="M9396 8383 c2 -43 14 -1518 14 -1770 l0 -103 209 0 209 0 1 553 c0
743 -7 1001 -26 985 -12 -9 -49 23 -212 186 l-197 197 2 -48z"/>
<path d="M7805 7664 l-280 -246 0 -151 c0 -84 1 -291 3 -462 l2 -310 282 3
c156 2 284 5 285 6 1 1 -1 318 -5 704 l-7 701 -280 -245z"/>
<path d="M7360 7265 c-30 -30 -60 -55 -66 -55 -6 0 -27 -17 -45 -38 -32 -36
-135 -125 -295 -257 -40 -33 -165 -141 -278 -240 l-205 -180 437 -3 c240 -2
461 0 490 3 l53 7 -8 226 c-4 125 -8 309 -7 410 0 126 -3 182 -11 182 -6 0
-35 -25 -65 -55z"/>
<path d="M17213 6123 c43 -2 110 -2 150 0 40 1 5 3 -78 3 -82 0 -115 -2 -72
-3z"/>
<path d="M17453 6123 c9 -2 23 -2 30 0 6 3 -1 5 -18 5 -16 0 -22 -2 -12 -5z"/>
<path d="M17528 6123 c7 -3 16 -2 19 1 4 3 -2 6 -13 5 -11 0 -14 -3 -6 -6z"/>
<path d="M15718 6113 c23 -2 61 -2 85 0 23 2 4 4 -43 4 -47 0 -66 -2 -42 -4z"/>
<path d="M15968 6113 c29 -2 74 -2 100 0 26 2 2 3 -53 3 -55 0 -76 -1 -47 -3z"/>
<path d="M16173 6113 c9 -2 23 -2 30 0 6 3 -1 5 -18 5 -16 0 -22 -2 -12 -5z"/>
<path d="M16253 6113 c9 -2 23 -2 30 0 6 3 -1 5 -18 5 -16 0 -22 -2 -12 -5z"/>
<path d="M14698 6103 c7 -3 16 -2 19 1 4 3 -2 6 -13 5 -11 0 -14 -3 -6 -6z"/>
<path d="M14783 6103 c26 -2 68 -2 95 0 26 2 4 3 -48 3 -52 0 -74 -1 -47 -3z"/>
<path d="M13208 6093 c94 -2 250 -2 345 0 94 1 17 3 -173 3 -190 0 -267 -2
-172 -3z"/>
<path d="M11788 6083 c105 -2 279 -2 385 0 105 1 19 2 -193 2 -212 0 -298 -1
-192 -2z"/>
<path d="M12408 6083 c7 -3 16 -2 19 1 4 3 -2 6 -13 5 -11 0 -14 -3 -6 -6z"/>
<path d="M10493 6073 c104 -2 270 -2 370 0 100 1 16 2 -188 2 -203 0 -285 -1
-182 -2z"/>
<path d="M9488 6063 c23 -2 59 -2 80 0 20 2 1 4 -43 4 -44 0 -61 -2 -37 -4z"/>
<path d="M15765 6060 l-640 -5 652 -3 c426 -1 654 1 658 8 3 6 -2 9 -12 8 -10
-2 -306 -5 -658 -8z"/>
<path d="M13798 6043 c6 -2 18 -2 25 0 6 3 1 5 -13 5 -14 0 -19 -2 -12 -5z"/>
<path d="M14068 6043 c117 -2 306 -2 420 0 114 1 18 2 -213 2 -231 0 -324 -1
-207 -2z"/>
<path d="M3394 6022 c-18 -14 -18 -14 6 -8 14 3 61 6 105 7 96 1 89 6 -16 12
-57 3 -81 0 -95 -11z"/>
<path d="M4915 5980 l-610 -6 690 1 c380 0 818 2 975 5 l285 5 -365 0 c-201 0
-639 -2 -975 -5z"/>
<path d="M6528 5983 c72 -2 192 -2 265 0 72 1 13 3 -133 3 -146 0 -205 -2
-132 -3z"/>
<path d="M3948 5963 c6 -2 18 -2 25 0 6 3 1 5 -13 5 -14 0 -19 -2 -12 -5z"/>
<path d="M4058 5963 c34 -2 90 -2 125 0 34 2 6 3 -63 3 -69 0 -97 -1 -62 -3z"/>
<path d="M9068 12713 c25 -10 11 -22 -14 -12 -15 5 -29 7 -32 4 -3 -3 -1 -5 5
-5 6 0 9 -9 6 -20 -3 -11 -9 -20 -14 -20 -5 0 -8 -18 -7 -40 1 -24 -5 -47 -15
-57 -10 -12 -22 -62 -32 -138 -19 -142 -20 -142 -152 -210 -65 -33 -93 -52
-93 -65 0 -22 25 -44 42 -37 7 2 17 5 22 5 5 0 12 4 15 9 3 5 45 29 92 53 l87
44 111 -42 c62 -23 118 -42 125 -42 8 0 18 36 28 108 23 148 25 153 100 190
108 56 132 71 140 92 12 34 -16 51 -83 48 -32 -1 -61 1 -65 5 -4 4 -17 1 -30
-7 -21 -14 -22 -14 -26 13 -4 25 -1 28 19 26 12 -1 21 1 18 5 -2 4 -20 7 -40
8 -21 1 -33 -3 -30 -8 9 -15 -8 -12 -34 6 -15 11 -25 13 -30 6 -3 -6 -20 -13
-36 -17 l-30 -7 28 19 c15 11 24 23 20 26 -3 4 4 7 16 7 12 0 24 -7 27 -15 8
-19 31 -20 31 -1 0 8 -6 12 -14 9 -7 -3 -13 -1 -13 5 0 14 -48 21 -54 8 -3 -7
-10 -4 -19 7 -8 9 -17 17 -21 17 -4 0 -14 7 -22 15 -9 8 -21 15 -27 14 -9 0
-8 -2 1 -6z m-28 -82 c0 -6 -4 -13 -10 -16 -5 -3 -10 1 -10 9 0 9 5 16 10 16
6 0 10 -4 10 -9z m10 -31 c-23 -14 -7 -21 28 -11 17 5 39 8 49 6 10 -2 23 -4
29 -4 6 -1 11 -7 11 -15 0 -17 -19 -15 -41 4 -13 10 -20 10 -28 2 -15 -15 -55
-16 -63 -2 -8 13 3 30 18 30 7 0 6 -4 -3 -10z m35 -50 c8 -13 -15 -13 -35 0
-12 8 -11 10 7 10 12 0 25 -4 28 -10z m40 -20 c3 -6 -1 -7 -9 -4 -18 7 -21 14
-7 14 6 0 13 -4 16 -10z m66 -7 c-10 -4 -5 -10 15 -19 40 -17 5 -18 -37 0 -32
14 -33 14 -9 19 35 6 47 6 31 0z"/>
<path d="M11470 12459 c-47 -4 -119 -15 -160 -24 -41 -9 -91 -19 -110 -22 -47
-9 -53 -16 -101 -125 -73 -165 -71 -152 -49 -304 11 -74 20 -139 20 -144 0 -5
6 -15 13 -22 6 -7 48 -57 92 -112 72 -90 80 -97 89 -77 5 11 13 21 19 21 5 0
4 -7 -4 -16 -10 -13 -10 -17 2 -25 24 -16 284 8 328 30 9 4 44 14 77 21 34 7
66 15 71 19 6 3 36 64 67 135 l57 129 -10 71 c-6 39 -16 105 -21 146 -11 78
-26 104 -124 215 -37 41 -43 55 -26 55 6 0 10 -3 10 -8 0 -4 13 -22 30 -40 16
-18 42 -49 57 -69 27 -36 28 -36 34 -12 14 50 10 58 -61 99 -39 23 -74 39 -79
36 -5 -3 -14 1 -21 10 -7 8 -19 13 -27 10 -8 -3 -11 -1 -8 4 7 11 -37 11 -165
-1z m153 -54 c-3 -9 -8 -14 -10 -11 -3 3 -2 9 2 15 9 16 15 13 8 -4z m-300
-670 c-3 -9 -8 -14 -10 -11 -3 3 -2 9 2 15 9 16 15 13 8 -4z"/>
<path d="M11047 12298 c-51 -57 -52 -59 -33 -103 l14 -30 31 68 c17 38 31 74
31 81 0 7 5 17 12 24 7 7 8 12 2 12 -5 0 -31 -23 -57 -52z"/>
<path d="M11869 12101 c9 -60 19 -113 24 -117 4 -4 7 -2 7 4 0 6 12 37 26 68
l26 57 -49 49 -49 49 15 -110z"/>
<path d="M10987 12028 l-27 -61 46 -54 c26 -30 48 -53 49 -51 4 5 -31 217 -37
223 -2 3 -17 -23 -31 -57z"/>
<path d="M7655 10745 c-27 -12 -28 -14 -7 -15 25 -3 43 -3 73 -1 18 1 19 3 9
16 -15 18 -36 18 -75 0z"/>
<path d="M7543 10688 c-36 -39 -112 -158 -149 -234 -30 -60 -34 -75 -24 -93 6
-12 8 -27 4 -33 -4 -6 -3 -8 3 -5 5 4 16 -6 24 -21 7 -15 33 -59 56 -99 24
-39 43 -83 43 -97 0 -30 -5 -28 115 -32 237 -8 263 -1 316 80 33 49 52 64 25
19 l-17 -28 20 24 c12 12 19 27 16 31 -3 5 4 24 16 42 18 28 20 29 14 8 l-6
-25 15 25 c18 29 20 44 6 35 -6 -4 -5 4 1 19 7 14 17 23 23 19 6 -3 8 -3 4 1
-3 4 0 23 8 42 14 33 13 39 -14 100 -16 35 -38 77 -50 91 -12 15 -22 30 -22
34 0 4 -42 32 -94 63 l-94 56 -109 0 c-101 0 -111 -2 -130 -22z m76 -78 c11
-24 11 -24 -3 -6 -9 11 -16 24 -16 30 0 12 5 7 19 -24z"/>
<path d="M7820 10706 c0 -4 119 -76 126 -76 2 0 -5 18 -16 40 -19 38 -23 40
-65 40 -25 0 -45 -2 -45 -4z"/>
<path d="M7451 10633 c-45 -31 -51 -38 -35 -44 30 -12 31 -11 64 36 17 25 30
45 28 45 -2 -1 -27 -17 -57 -37z m17 -13 c-7 -10 -14 -17 -17 -15 -4 4 18 35
25 35 2 0 -1 -9 -8 -20z"/>
<path d="M7384 10546 c-3 -13 -4 -37 -2 -52 l3 -29 22 41 c21 39 21 40 2 52
-16 10 -19 9 -25 -12z"/>
<path d="M7377 10303 c-11 -11 -8 -71 5 -79 12 -8 58 -15 58 -9 0 2 -14 19
-30 37 -17 18 -28 38 -25 45 5 14 2 17 -8 6z"/>
<path d="M15936 10252 c-2 -4 4 -9 15 -9 10 -1 19 2 19 8 0 11 -27 12 -34 1z"/>
<path d="M16671 8094 c-125 -60 -104 -58 -230 -27 -17 4 -22 2 -19 -8 3 -8 11
-14 19 -14 8 0 16 -3 19 -7 3 -4 23 -13 45 -20 39 -13 41 -16 69 -101 15 -48
32 -87 37 -87 5 0 42 16 81 36 59 30 77 34 107 28 20 -4 39 -7 44 -6 4 1 7 -2
7 -7 0 -15 41 -20 46 -6 3 7 -13 72 -36 144 -32 101 -45 131 -58 130 -9 0 -68
-25 -131 -55z"/>
<path d="M5180 7911 c0 -5 7 -14 15 -21 12 -10 20 -9 40 4 34 22 32 26 -15 26
-22 0 -40 -4 -40 -9z"/>
<path d="M5254 7897 c-45 -37 -60 -39 -73 -10 -14 30 -27 27 -49 -12 -9 -17
-20 -32 -23 -35 -3 -3 -18 -25 -32 -50 -18 -32 -23 -50 -17 -60 5 -8 7 -24 4
-35 -3 -13 -2 -16 3 -7 7 9 14 2 26 -23 9 -20 24 -38 32 -41 8 -4 12 -10 9
-15 -3 -5 2 -6 10 -3 10 4 16 1 16 -9 0 -9 -8 -18 -17 -20 -16 -4 -16 -5 -1
-6 9 0 24 6 32 15 9 8 16 11 16 6 0 -13 32 -25 39 -15 3 4 17 17 31 28 l25 20
-24 -28 c-18 -19 -20 -27 -10 -28 8 0 24 -2 37 -3 24 -3 29 13 10 32 -6 6 -9
14 -6 18 4 3 14 -6 23 -20 l17 -26 19 24 c10 13 19 27 19 30 0 3 13 25 30 48
33 48 45 94 27 102 -9 3 -9 5 0 5 8 1 8 7 0 26 l-12 24 -12 -32 -12 -32 2 39
c2 35 -1 41 -23 47 -14 4 -19 7 -12 8 21 2 13 16 -18 34 -16 10 -30 15 -30 11
0 -3 -6 -1 -14 5 -11 9 -20 6 -42 -12z m160 -157 c-10 -4 -21 -6 -24 -3 -8 7
24 22 34 16 5 -4 1 -10 -10 -13z m-309 0 c-3 -5 -12 -7 -20 -3 -21 7 -19 13 6
13 11 0 18 -4 14 -10z m42 -106 c-3 -3 -12 -4 -19 -1 -8 3 -5 6 6 6 11 1 17
-2 13 -5z m190 0 c-3 -3 -12 -4 -19 -1 -8 3 -5 6 6 6 11 1 17 -2 13 -5z"/>
<path d="M3936 7824 c-9 -8 -16 -18 -17 -22 -3 -27 -9 -46 -16 -51 -4 -3 -9
-17 -11 -29 -2 -23 -37 -61 -57 -62 -5 0 -21 -9 -35 -20 l-25 -19 64 -65 65
-65 -18 -76 c-10 -42 -16 -79 -12 -82 15 -15 35 11 46 59 7 29 17 61 21 70 8
15 69 59 181 131 16 11 28 28 28 40 0 21 -1 21 -13 -2 -6 -14 -19 -27 -27 -29
-11 -4 -10 1 4 17 21 23 6 29 -17 6 -8 -8 -18 -11 -22 -7 -3 4 -4 -7 0 -23 4
-17 3 -25 -2 -19 -4 6 -16 14 -26 17 -11 4 -21 16 -24 27 -3 11 -11 20 -18 20
-6 0 -20 9 -30 20 -16 17 -16 20 -2 20 8 0 18 6 21 13 3 6 4 3 3 -8 -1 -11 5
-21 14 -23 13 -2 15 3 12 23 -3 14 -11 25 -18 25 -16 0 -37 47 -25 55 6 4 10
1 10 -5 0 -7 7 -9 16 -6 9 3 12 2 9 -5 -9 -14 14 -39 36 -39 15 0 17 4 10 23
-5 12 -11 21 -15 19 -4 -2 -16 7 -27 20 -11 13 -17 17 -13 9 5 -9 3 -12 -4 -7
-7 4 -12 15 -12 25 0 17 -18 41 -31 41 -4 0 -15 -7 -23 -16z m109 -84 c-3 -5
-12 -10 -18 -10 -7 0 -6 4 3 10 19 12 23 12 15 0z"/>
<path d="M4084 7676 c5 -29 16 -49 16 -28 0 6 8 9 18 6 12 -4 13 -3 4 3 -6 5
-19 18 -27 29 -14 18 -15 18 -11 -10z"/>
<path d="M4035 7641 c-3 -5 -1 -12 4 -15 5 -3 11 1 15 9 6 16 -9 21 -19 6z"/>
</g>
</svg>
