<?xml version="1.0" standalone="no"?>
<!DOCTYPE svg PUBLIC "-//W3C//DTD SVG 20010904//EN"
 "http://www.w3.org/TR/2001/REC-SVG-20010904/DTD/svg10.dtd">
<svg version="1.0" xmlns="http://www.w3.org/2000/svg"
 width="490.000000pt" height="510.000000pt" viewBox="0 0 490.000000 510.000000"
 preserveAspectRatio="xMidYMid meet">

<g transform="translate(0.000000,510.000000) scale(0.100000,-0.100000)"
fill="#000000" stroke="none">
<path d="M2192 4440 c-233 -30 -569 -147 -757 -265 -190 -120 -442 -349 -571
-520 -163 -216 -287 -499 -351 -800 -25 -121 -27 -146 -27 -375 0 -193 3 -265
17 -340 64 -337 173 -596 356 -840 96 -128 364 -394 460 -458 230 -151 504
-267 745 -313 299 -57 624 -46 926 31 167 43 387 142 550 248 277 179 549 482
692 767 268 535 277 1205 24 1740 -272 573 -799 983 -1421 1105 -88 18 -156
23 -340 25 -126 2 -263 0 -303 -5z m383 -220 c287 -26 431 -67 676 -191 431
-218 728 -564 873 -1017 57 -178 76 -311 76 -535 -1 -355 -46 -547 -195 -820
-108 -197 -170 -284 -294 -408 -242 -241 -454 -336 -870 -391 -219 -29 -542
-31 -710 -5 -248 39 -449 107 -635 215 -55 33 -132 76 -171 97 -123 67 -219
171 -340 371 -175 288 -242 487 -265 789 -30 378 39 694 223 1019 128 228 356
467 580 609 97 62 250 134 372 177 169 58 299 81 550 99 11 0 70 -4 130 -9z"/>
<path d="M2388 3698 c-45 -26 -63 -58 -63 -113 0 -52 18 -86 56 -109 28 -16
29 -21 29 -85 0 -54 -4 -70 -16 -75 -9 -3 -84 -6 -167 -6 -199 0 -305 -22
-442 -92 -165 -83 -314 -230 -395 -389 -27 -52 -32 -57 -71 -62 -61 -8 -162
-61 -204 -108 -21 -23 -49 -67 -64 -98 -22 -47 -26 -70 -26 -146 0 -76 4 -99
26 -146 15 -31 43 -74 63 -96 44 -49 139 -101 200 -109 45 -7 46 -7 93 -92 91
-162 263 -315 433 -385 108 -44 179 -59 310 -65 l125 -5 30 -41 c58 -79 176
-114 274 -81 91 30 141 88 141 165 0 127 -146 208 -296 165 -48 -14 -68 -27
-111 -72 l-52 -55 -98 7 c-373 26 -646 238 -755 585 -20 65 -23 96 -23 225 0
129 3 160 23 225 50 159 141 297 259 395 173 143 364 201 633 193 l105 -3 0
-69 c0 -68 -1 -69 -30 -80 -53 -19 -103 -55 -124 -91 l-20 -35 -115 0 c-125 0
-210 -21 -301 -75 -152 -88 -255 -276 -255 -462 0 -183 92 -349 253 -454 114
-74 114 -74 647 -74 434 0 479 2 525 18 75 27 134 64 197 125 74 71 111 128
142 226 62 188 12 397 -129 540 -65 65 -121 100 -216 132 -58 20 -91 24 -185
24 l-115 0 -20 35 c-21 36 -71 72 -124 91 -29 11 -30 12 -30 80 l0 69 100 3
c272 8 465 -50 638 -193 83 -69 145 -146 198 -248 74 -141 81 -181 86 -447 2
-129 6 -246 9 -259 5 -22 8 -23 55 -18 27 3 77 20 109 38 230 122 255 443 47
600 -47 35 -133 69 -174 69 -16 0 -31 19 -61 73 -90 163 -223 292 -387 375
-137 70 -243 92 -442 92 -83 0 -158 3 -167 6 -12 5 -16 21 -16 75 0 64 1 69
29 85 38 23 56 57 56 109 0 55 -19 88 -65 114 -47 26 -85 26 -132 -1z m549
-1153 c30 -63 -10 -125 -79 -125 -102 0 -123 142 -25 168 46 12 86 -4 104 -43z
m-822 20 c59 -58 9 -155 -75 -146 -74 8 -103 98 -50 151 29 29 94 27 125 -5z
m565 -283 c0 -10 -12 -37 -27 -60 -50 -76 -167 -117 -260 -91 -71 19 -111 46
-138 94 -46 78 -54 75 200 75 210 0 225 -1 225 -18z"/>
</g>
</svg>
