<?xml version="1.0" standalone="no"?>
<!DOCTYPE svg PUBLIC "-//W3C//DTD SVG 20010904//EN"
 "http://www.w3.org/TR/2001/REC-SVG-20010904/DTD/svg10.dtd">
<svg version="1.0" xmlns="http://www.w3.org/2000/svg"
 width="360.000000pt" height="360.000000pt" viewBox="0 0 360.000000 360.000000"
 preserveAspectRatio="xMidYMid meet">

<g transform="translate(0.000000,360.000000) scale(0.100000,-0.100000)"
fill="#000000" stroke="none">
<path d="M1561 2969 c-94 -20 -229 -67 -312 -109 -149 -76 -347 -252 -437
-390 -133 -201 -202 -430 -202 -665 0 -246 64 -464 194 -659 61 -91 226 -266
299 -315 266 -180 550 -249 863 -207 141 19 242 49 368 112 124 63 205 121
312 228 226 224 344 515 344 844 0 538 -368 1009 -897 1149 -139 36 -393 42
-532 12z m356 -124 c270 -19 586 -204 742 -434 138 -203 197 -408 188 -651 -6
-170 -30 -268 -102 -415 -49 -100 -146 -244 -170 -252 -6 -1 -20 34 -33 79
-40 143 -119 261 -241 358 -71 57 -169 110 -202 110 -12 0 -51 -14 -86 -30
-134 -63 -285 -64 -418 -1 -37 17 -79 31 -94 31 -51 0 -186 -88 -274 -180 -93
-96 -143 -182 -173 -299 -10 -39 -22 -71 -26 -71 -19 0 -113 135 -163 235 -79
156 -105 256 -112 430 -8 203 22 346 109 520 161 323 485 544 843 574 50 4 99
6 110 5 11 -2 57 -5 102 -9z"/>
<path d="M1658 2591 c-83 -27 -138 -62 -200 -130 -176 -189 -171 -468 11 -650
187 -187 478 -185 666 4 93 93 135 193 135 320 0 215 -136 399 -339 459 -73
21 -201 20 -273 -3z"/>
</g>
</svg>
